<mxfile host="app.diagrams.net" modified="2022-09-17T22:49:49.407Z" agent="5.0 (Macintosh; Intel Mac OS X 10_15_7) AppleWebKit/537.36 (KHTML, like Gecko) Chrome/105.0.0.0 Safari/537.36" etag="f2WY_GOjQ7HCJO0EVzi5" version="20.2.8" type="github">
  <diagram id="IHnjtc8mfbYJRDmWvsIJ" name="PÃ¡gina-1">
    <mxGraphModel dx="1853" dy="518" grid="1" gridSize="10" guides="1" tooltips="1" connect="1" arrows="1" fold="1" page="1" pageScale="1" pageWidth="827" pageHeight="1169" math="0" shadow="0">
      <root>
        <mxCell id="0" />
        <mxCell id="1" parent="0" />
        <mxCell id="JzNPfdEzPlI0FAZLIrvP-2" value="chaos-budget-service" style="rounded=0;whiteSpace=wrap;html=1;" vertex="1" parent="1">
          <mxGeometry x="-130" y="150" width="120" height="60" as="geometry" />
        </mxCell>
        <mxCell id="JzNPfdEzPlI0FAZLIrvP-4" value="" style="endArrow=classic;startArrow=classic;html=1;rounded=0;exitX=1;exitY=0.5;exitDx=0;exitDy=0;entryX=0;entryY=0.5;entryDx=0;entryDy=0;edgeStyle=orthogonalEdgeStyle;curved=1;" edge="1" parent="1" source="JzNPfdEzPlI0FAZLIrvP-8" target="JzNPfdEzPlI0FAZLIrvP-2">
          <mxGeometry width="50" height="50" relative="1" as="geometry">
            <mxPoint x="-10" y="180" as="sourcePoint" />
            <mxPoint x="250" y="240" as="targetPoint" />
          </mxGeometry>
        </mxCell>
        <mxCell id="JzNPfdEzPlI0FAZLIrvP-5" value="postgres" style="shape=datastore;whiteSpace=wrap;html=1;" vertex="1" parent="1">
          <mxGeometry x="110" y="150" width="60" height="60" as="geometry" />
        </mxCell>
        <mxCell id="JzNPfdEzPlI0FAZLIrvP-6" value="" style="endArrow=classic;startArrow=classic;html=1;rounded=0;curved=1;exitX=1;exitY=0.5;exitDx=0;exitDy=0;entryX=0;entryY=0.5;entryDx=0;entryDy=0;edgeStyle=orthogonalEdgeStyle;" edge="1" parent="1" source="JzNPfdEzPlI0FAZLIrvP-2" target="JzNPfdEzPlI0FAZLIrvP-5">
          <mxGeometry width="50" height="50" relative="1" as="geometry">
            <mxPoint x="300" y="290" as="sourcePoint" />
            <mxPoint x="350" y="240" as="targetPoint" />
          </mxGeometry>
        </mxCell>
        <mxCell id="JzNPfdEzPlI0FAZLIrvP-11" style="edgeStyle=orthogonalEdgeStyle;curved=1;rounded=0;orthogonalLoop=1;jettySize=auto;html=1;exitX=1;exitY=0.5;exitDx=0;exitDy=0;entryX=0;entryY=0.5;entryDx=0;entryDy=0;" edge="1" parent="1" source="JzNPfdEzPlI0FAZLIrvP-8" target="JzNPfdEzPlI0FAZLIrvP-10">
          <mxGeometry relative="1" as="geometry" />
        </mxCell>
        <mxCell id="JzNPfdEzPlI0FAZLIrvP-8" value="canais" style="rounded=0;whiteSpace=wrap;html=1;" vertex="1" parent="1">
          <mxGeometry x="-360" y="150" width="120" height="60" as="geometry" />
        </mxCell>
        <mxCell id="JzNPfdEzPlI0FAZLIrvP-10" value="chaos-auth-service" style="rounded=0;whiteSpace=wrap;html=1;" vertex="1" parent="1">
          <mxGeometry x="-130" y="10" width="120" height="60" as="geometry" />
        </mxCell>
      </root>
    </mxGraphModel>
  </diagram>
</mxfile>
